# This file uses centimeters as units for non-parametric coordinates.

mtllib tube-corner-1.mtl
g default
v -0.999999 -0.707449 -0.000000
v -0.980785 -0.707449 0.195090
v -0.923879 -0.707449 0.382684
v -0.831470 -0.707449 0.555570
v -0.707106 -0.707449 0.707106
v -0.555570 -0.707449 0.831470
v -0.382684 -0.707449 0.923879
v -0.195090 -0.707449 0.980785
v -0.000000 -0.707449 1.000000
v -0.999999 0.707450 0.000000
v -0.980785 0.707450 0.195090
v -0.923878 0.707450 0.382683
v -0.831469 0.707450 0.555570
v -0.707106 0.707450 0.707107
v -0.555570 0.707450 0.831469
v -0.382683 0.707450 0.923879
v -0.195090 0.707450 0.980785
v 0.000001 0.707450 1.000000
v -0.999999 0.707450 -0.000001
v -1.000000 -0.707449 -0.000001
v -0.980785 0.707450 0.195090
v -0.980784 -0.707449 0.195089
v -0.923879 0.707450 0.382683
v -0.923879 -0.707449 0.382683
v -0.831469 0.707450 0.555569
v -0.831470 -0.707449 0.555569
v -0.707107 0.707450 0.707106
v -0.707108 -0.707449 0.707107
v -0.555571 0.707450 0.831469
v -0.555571 -0.707449 0.831469
v -0.382684 0.707450 0.923879
v -0.382684 -0.707449 0.923879
v -0.195090 0.707449 0.980785
v -0.195090 -0.707449 0.980785
v -0.000000 0.707449 1.000000
v -0.000000 -0.707449 1.000000
v -1.052696 -0.707449 -0.000000
v -1.052696 0.707449 -0.000000
v -1.032469 -0.707449 0.205370
v -1.032469 0.707449 0.205370
v -0.972564 -0.707449 0.402849
v -0.972564 0.707449 0.402849
v -0.875285 -0.707449 0.584846
v -0.875285 0.707449 0.584846
v -0.744369 -0.707449 0.744368
v -0.744369 0.707449 0.744368
v -0.584847 -0.707449 0.875285
v -0.584847 0.707449 0.875285
v -0.402849 -0.707449 0.972565
v -0.402849 0.707449 0.972565
v -0.205371 -0.707449 1.032469
v -0.205371 0.707449 1.032469
v -0.000000 -0.707449 1.052696
v -0.000000 0.707449 1.052696
vt 0.492188 0.312500
vt 0.500000 0.312500
vt 0.507812 0.312500
vt 0.515625 0.312500
vt 0.523438 0.312500
vt 0.531250 0.312500
vt 0.539062 0.312500
vt 0.546875 0.312500
vt 0.554688 0.312500
vt 0.492188 0.688440
vt 0.500000 0.688440
vt 0.507812 0.688440
vt 0.515625 0.688440
vt 0.523438 0.688440
vt 0.531250 0.688440
vt 0.539062 0.688440
vt 0.546875 0.688440
vt 0.554688 0.688440
vt 0.492188 0.688440
vt 0.492188 0.312500
vt 0.500000 0.688440
vt 0.500000 0.312500
vt 0.507812 0.688440
vt 0.507812 0.312500
vt 0.515625 0.688440
vt 0.515625 0.312500
vt 0.523438 0.688440
vt 0.523438 0.312500
vt 0.531250 0.688440
vt 0.531250 0.312500
vt 0.539062 0.688440
vt 0.539062 0.312500
vt 0.546875 0.688440
vt 0.546875 0.312500
vt 0.554688 0.688440
vt 0.554688 0.312500
vt 0.492188 0.688440
vt 0.492188 0.312500
vt 0.500000 0.688440
vt 0.500000 0.312500
vt 0.507812 0.688440
vt 0.507812 0.312500
vt 0.515625 0.688440
vt 0.515625 0.312500
vt 0.523438 0.688440
vt 0.523438 0.312500
vt 0.531250 0.688440
vt 0.531250 0.312500
vt 0.539062 0.688440
vt 0.539062 0.312500
vt 0.546875 0.688440
vt 0.546875 0.312500
vt 0.554688 0.688440
vt 0.554688 0.312500
vt 0.492188 0.312500
vt 0.492188 0.688440
vt 0.500000 0.312500
vt 0.500000 0.688440
vt 0.507812 0.312500
vt 0.507812 0.688440
vt 0.515625 0.312500
vt 0.515625 0.688440
vt 0.523438 0.312500
vt 0.523438 0.688440
vt 0.531250 0.312500
vt 0.531250 0.688440
vt 0.539062 0.312500
vt 0.539062 0.688440
vt 0.546875 0.312500
vt 0.546875 0.688440
vt 0.554688 0.312500
vt 0.554688 0.688440
vn -0.995185 0.000000 0.098016
vn -0.980785 0.000000 0.195089
vn -0.980785 0.000000 0.195089
vn -0.995185 0.000000 0.098016
vn -0.923880 0.000000 0.382683
vn -0.923880 0.000000 0.382683
vn -0.831470 0.000000 0.555570
vn -0.831470 0.000000 0.555570
vn -0.707107 0.000000 0.707107
vn -0.707107 0.000000 0.707107
vn -0.555571 0.000000 0.831469
vn -0.555571 0.000000 0.831469
vn -0.382684 0.000000 0.923880
vn -0.382684 0.000000 0.923880
vn -0.195090 0.000000 0.980785
vn -0.195090 0.000000 0.980785
vn -0.098018 0.000000 0.995185
vn -0.098018 0.000000 0.995185
vn 0.995185 -0.000000 -0.098015
vn 0.995185 -0.000000 -0.098015
vn 0.980785 -0.000000 -0.195091
vn 0.980785 -0.000000 -0.195091
vn 0.923880 -0.000001 -0.382683
vn 0.923880 -0.000001 -0.382683
vn 0.831470 -0.000001 -0.555570
vn 0.831470 -0.000001 -0.555570
vn 0.707106 -0.000000 -0.707107
vn 0.707107 -0.000000 -0.707107
vn 0.555571 -0.000000 -0.831469
vn 0.555571 -0.000000 -0.831469
vn 0.471397 -0.000000 -0.881921
vn 0.471397 -0.000000 -0.881921
vn 0.290285 -0.000000 -0.956940
vn 0.290285 -0.000000 -0.956940
vn 0.290285 -0.000000 -0.956940
vn 0.290285 -0.000000 -0.956940
vn 0.098018 -0.000000 -0.995185
vn 0.098018 -0.000000 -0.995185
vn 0.098018 -0.000000 -0.995185
vn 0.098018 -0.000000 -0.995185
vn 0.000000 1.000000 0.000002
vn 0.000000 1.000000 0.000002
vn 0.000000 1.000000 0.000002
vn 0.000000 1.000000 0.000002
vn 0.000000 -1.000000 0.000006
vn 0.000000 -1.000000 0.000006
vn 0.000000 -1.000000 0.000006
vn 0.000000 -1.000000 0.000006
vn 0.000000 -1.000000 0.000001
vn 0.000000 -1.000000 0.000001
vn 0.000000 -1.000000 0.000001
vn 0.000000 -1.000000 0.000001
vn 0.000000 -1.000000 0.000001
vn 0.000000 -1.000000 0.000001
vn 0.000000 -1.000000 0.000001
vn 0.000000 -1.000000 0.000001
vn 0.000000 -1.000000 -0.000008
vn 0.000000 -1.000000 -0.000008
vn 0.000000 -1.000000 -0.000008
vn 0.000000 -1.000000 -0.000008
vn 0.000000 -1.000000 0.000002
vn 0.000000 -1.000000 0.000002
vn 0.000000 -1.000000 0.000002
vn 0.000000 -1.000000 0.000002
vn 0.000000 -0.000000 -0.000000
vn 0.000000 -0.000000 -0.000000
vn 0.000000 -0.000000 -0.000000
vn 0.000000 -0.000000 -0.000000
vn 0.000000 -1.000000 -0.000022
vn 0.000000 -1.000000 -0.000022
vn 0.000000 -1.000000 -0.000022
vn 0.000000 -1.000000 -0.000022
vn 0.000000 -1.000000 -0.000018
vn 0.000000 -1.000000 -0.000018
vn 0.000000 -1.000000 -0.000018
vn 0.000000 -1.000000 -0.000018
vn 0.000000 1.000000 -0.000003
vn 0.000000 1.000000 -0.000003
vn 0.000000 1.000000 -0.000003
vn 0.000000 1.000000 -0.000003
vn 0.000000 -1.000000 -0.000008
vn 0.000000 -1.000000 -0.000008
vn 0.000000 -1.000000 -0.000008
vn 0.000000 -1.000000 -0.000008
vn 0.000000 -1.000000 -0.000002
vn 0.000000 -1.000000 -0.000002
vn 0.000000 -1.000000 -0.000002
vn 0.000000 -1.000000 -0.000002
vn 0.276253 -0.308477 -0.910234
vn 0.276253 -0.308477 -0.910234
vn 0.276253 -0.308477 -0.910234
vn 0.276253 -0.308477 -0.910234
vn -0.258203 -0.457761 0.850756
vn -0.258203 -0.457761 0.850756
vn -0.258203 -0.457761 0.850756
vn -0.258203 -0.457761 0.850756
vn 0.099553 -0.215350 -0.971449
vn 0.099553 -0.215350 -0.971449
vn 0.099553 -0.215350 -0.971449
vn 0.099553 -0.215350 -0.971449
vn -0.089414 -0.313950 0.945220
vn -0.089414 -0.313950 0.945220
vn -0.089414 -0.313950 0.945220
vn -0.089414 -0.313950 0.945220
vn 0.000013 -1.000000 -0.000001
vn 0.000013 -1.000000 -0.000002
vn 0.000013 -1.000000 -0.000002
vn 0.000013 -1.000000 -0.000001
vn -0.000013 1.000000 0.000002
vn -0.000013 1.000000 0.000001
vn -0.000013 1.000000 0.000001
vn -0.000013 1.000000 0.000002
vn 0.000012 -1.000000 -0.000005
vn 0.000012 -1.000000 -0.000005
vn -0.000012 1.000000 0.000004
vn -0.000012 1.000000 0.000004
vn 0.000011 -1.000000 -0.000007
vn 0.000011 -1.000000 -0.000007
vn -0.000011 1.000000 0.000007
vn -0.000011 1.000000 0.000007
vn 0.000009 -1.000000 -0.000008
vn 0.000009 -1.000000 -0.000008
vn -0.000009 1.000000 0.000009
vn -0.000009 1.000000 0.000009
vn 0.000007 -1.000000 -0.000010
vn 0.000007 -1.000000 -0.000010
vn -0.000007 1.000000 0.000011
vn -0.000007 1.000000 0.000011
vn 0.000003 -1.000000 -0.000010
vn 0.000003 -1.000000 -0.000010
vn -0.000003 1.000000 0.000009
vn -0.000003 1.000000 0.000009
vn 0.000000 -1.000000 -0.000004
vn 0.000000 -1.000000 -0.000004
vn -0.000000 1.000000 0.000003
vn -0.000000 1.000000 0.000003
vn 0.000000 -1.000000 0.000000
vn 0.000000 -1.000000 0.000000
vn 0.000000 1.000000 -0.000000
vn 0.000000 1.000000 -0.000000
s 1
g pCylinder1
usemtl lambert5SG
f 37/55/1 39/57/2 40/58/3 38/56/4
f 39/57/2 41/59/5 42/60/6 40/58/3
f 41/59/5 43/61/7 44/62/8 42/60/6
f 43/61/7 45/63/9 46/64/10 44/62/8
f 45/63/9 47/65/11 48/66/12 46/64/10
f 47/65/11 49/67/13 50/68/14 48/66/12
f 49/67/13 51/69/15 52/70/16 50/68/14
f 51/69/15 53/71/17 54/72/18 52/70/16
s 2
f 1/20/19 10/19/20 11/21/21 2/22/22
f 2/22/22 11/21/21 12/23/23 3/24/24
f 3/24/24 12/23/23 13/25/25 4/26/26
f 4/26/26 13/25/25 14/27/27 5/28/28
f 5/28/28 14/27/27 15/29/29 6/30/30
f 6/30/30 15/29/29 16/31/31 7/32/32
s off
f 7/32/33 16/31/34 17/33/35 8/34/36
f 8/34/37 17/33/38 18/35/39 9/36/40
f 10/10/41 11/11/42 21/39/43 19/37/44
f 2/2/45 1/1/46 20/38/47 22/40/48
f 11/11/49 12/12/50 23/41/51 21/39/52
f 3/3/53 2/2/54 22/40/55 24/42/56
f 12/12/57 13/13/58 25/43/59 23/41/60
f 4/4/61 3/3/62 24/42/63 26/44/64
f 13/13/65 14/14/66 27/45/67 25/43/68
f 5/5/69 4/4/70 26/44/71 28/46/72
f 14/14/73 15/15/74 29/47/75 27/45/76
f 6/6/77 5/5/78 28/46/79 30/48/80
f 15/15/81 16/16/82 31/49/83 29/47/84
f 7/7/85 6/6/86 30/48/87 32/50/88
f 16/16/89 17/17/90 33/51/91 31/49/92
f 8/8/93 7/7/94 32/50/95 34/52/96
f 17/17/97 18/18/98 35/53/99 33/51/100
f 9/9/101 8/8/102 34/52/103 36/54/104
s 3
f 20/38/105 22/40/106 39/57/107 37/55/108
s 4
f 21/39/109 19/37/110 38/56/111 40/58/112
s 3
f 22/40/106 24/42/113 41/59/114 39/57/107
s 4
f 23/41/115 21/39/109 40/58/112 42/60/116
s 3
f 24/42/113 26/44/117 43/61/118 41/59/114
s 4
f 25/43/119 23/41/115 42/60/116 44/62/120
s 3
f 26/44/117 28/46/121 45/63/122 43/61/118
s 4
f 27/45/123 25/43/119 44/62/120 46/64/124
s 3
f 28/46/121 30/48/125 47/65/126 45/63/122
s 4
f 29/47/127 27/45/123 46/64/124 48/66/128
s 3
f 30/48/125 32/50/129 49/67/130 47/65/126
s 4
f 31/49/131 29/47/127 48/66/128 50/68/132
s 3
f 32/50/129 34/52/133 51/69/134 49/67/130
s 4
f 33/51/135 31/49/131 50/68/132 52/70/136
s 3
f 34/52/133 36/54/137 53/71/138 51/69/134
s 4
f 35/53/139 33/51/135 52/70/136 54/72/140
