# This file uses centimeters as units for non-parametric coordinates.

mtllib tube-3-segmented-inside-normals.mtl
g default
v 0.980784 -0.707449 -0.195090
v 0.923878 -0.707449 -0.382682
v 0.831469 -0.707449 -0.555569
v 0.707106 -0.707449 -0.707105
v 0.555570 -0.707449 -0.831468
v 0.382683 -0.707449 -0.923878
v 0.195091 -0.707449 -0.980784
v 0.000000 -0.707449 -0.999999
v -0.195090 -0.707449 -0.980784
v -0.382683 -0.707449 -0.923878
v -0.555570 -0.707449 -0.831469
v -0.707105 -0.707449 -0.707107
v -0.831468 -0.707449 -0.555570
v -0.923878 -0.707449 -0.382683
v -0.980784 -0.707449 -0.195091
v -0.999999 -0.707449 -0.000000
v -0.980784 -0.707449 0.195090
v -0.923878 -0.707449 0.382683
v -0.831469 -0.707449 0.555569
v -0.707107 -0.707449 0.707106
v -0.555570 -0.707449 0.831469
v -0.382683 -0.707449 0.923879
v -0.195091 -0.707449 0.980785
v -0.000000 -0.707449 1.000000
v 0.195090 -0.707449 0.980785
v 0.382683 -0.707449 0.923879
v 0.555570 -0.707449 0.831469
v 0.707106 -0.707449 0.707107
v 0.831469 -0.707449 0.555570
v 0.923879 -0.707449 0.382683
v 0.980785 -0.707449 0.195090
v 1.000000 -0.707449 0.000000
v 0.980784 0.707449 -0.195090
v 0.923879 0.707449 -0.382683
v 0.831469 0.707449 -0.555569
v 0.707106 0.707449 -0.707106
v 0.555570 0.707449 -0.831468
v 0.382683 0.707449 -0.923878
v 0.195091 0.707449 -0.980784
v 0.000000 0.707449 -0.999999
v -0.195090 0.707449 -0.980784
v -0.382683 0.707449 -0.923879
v -0.555569 0.707449 -0.831469
v -0.707106 0.707449 -0.707106
v -0.831469 0.707449 -0.555570
v -0.923879 0.707449 -0.382683
v -0.980785 0.707449 -0.195091
v -0.999999 0.707449 -0.000000
v -0.980785 0.707449 0.195090
v -0.923879 0.707449 0.382683
v -0.831469 0.707449 0.555570
v -0.707107 0.707449 0.707106
v -0.555570 0.707449 0.831469
v -0.382683 0.707449 0.923879
v -0.195090 0.707449 0.980785
v -0.000000 0.707449 1.000000
v 0.195090 0.707449 0.980785
v 0.382683 0.707449 0.923879
v 0.555570 0.707449 0.831470
v 0.707107 0.707449 0.707107
v 0.831469 0.707449 0.555570
v 0.923879 0.707449 0.382683
v 0.980785 0.707449 0.195090
v 1.000000 0.707449 0.000000
vt 0.375000 0.312500
vt 0.382812 0.312500
vt 0.390625 0.312500
vt 0.398438 0.312500
vt 0.406250 0.312500
vt 0.414062 0.312500
vt 0.421875 0.312500
vt 0.429688 0.312500
vt 0.437500 0.312500
vt 0.445312 0.312500
vt 0.453125 0.312500
vt 0.460938 0.312500
vt 0.468750 0.312500
vt 0.476562 0.312500
vt 0.484375 0.312500
vt 0.492188 0.312500
vt 0.500000 0.312500
vt 0.507812 0.312500
vt 0.515625 0.312500
vt 0.523438 0.312500
vt 0.531250 0.312500
vt 0.539062 0.312500
vt 0.546875 0.312500
vt 0.554688 0.312500
vt 0.562500 0.312500
vt 0.570312 0.312500
vt 0.578125 0.312500
vt 0.585938 0.312500
vt 0.593750 0.312500
vt 0.601562 0.312500
vt 0.609375 0.312500
vt 0.617188 0.312500
vt 0.625000 0.312500
vt 0.375000 0.688440
vt 0.382812 0.688440
vt 0.390625 0.688440
vt 0.398438 0.688440
vt 0.406250 0.688440
vt 0.414062 0.688440
vt 0.421875 0.688440
vt 0.429688 0.688440
vt 0.437500 0.688440
vt 0.445312 0.688440
vt 0.453125 0.688440
vt 0.460938 0.688440
vt 0.468750 0.688440
vt 0.476562 0.688440
vt 0.484375 0.688440
vt 0.492188 0.688440
vt 0.500000 0.688440
vt 0.507812 0.688440
vt 0.515625 0.688440
vt 0.523438 0.688440
vt 0.531250 0.688440
vt 0.539062 0.688440
vt 0.546875 0.688440
vt 0.554688 0.688440
vt 0.562500 0.688440
vt 0.570312 0.688440
vt 0.578125 0.688440
vt 0.585938 0.688440
vt 0.593750 0.688440
vt 0.601562 0.688440
vt 0.609375 0.688440
vt 0.617188 0.688440
vt 0.625000 0.688440
vn -0.980785 0.000000 0.195093
vn -0.980785 0.000000 0.195093
vn -0.923880 0.000000 0.382683
vn -0.923880 0.000000 0.382683
vn -0.831469 0.000000 0.555570
vn -0.831470 0.000000 0.555570
vn -0.707108 0.000000 0.707106
vn -0.707108 0.000000 0.707106
vn -0.555571 0.000000 0.831469
vn -0.555572 0.000000 0.831469
vn -0.382684 0.000000 0.923879
vn -0.382684 0.000000 0.923879
vn -0.195091 0.000000 0.980785
vn -0.195091 0.000000 0.980785
vn -0.000000 0.000000 1.000000
vn -0.000000 0.000000 1.000000
vn 0.195090 0.000000 0.980785
vn 0.195090 0.000000 0.980785
vn 0.382683 0.000000 0.923880
vn 0.382683 0.000000 0.923880
vn 0.555569 0.000000 0.831470
vn 0.555569 0.000000 0.831470
vn 0.707106 0.000000 0.707107
vn 0.707106 0.000000 0.707107
vn 0.831469 0.000000 0.555571
vn 0.831469 0.000000 0.555571
vn 0.923879 0.000000 0.382684
vn 0.923879 0.000000 0.382684
vn 0.980785 0.000000 0.195091
vn 0.980785 0.000000 0.195091
vn 1.000000 0.000000 0.000000
vn 1.000000 0.000000 0.000000
vn 0.980785 0.000000 -0.195090
vn 0.980785 0.000000 -0.195090
vn 0.923880 0.000000 -0.382683
vn 0.923880 0.000000 -0.382683
vn 0.831470 0.000000 -0.555569
vn 0.831470 0.000000 -0.555569
vn 0.707107 0.000000 -0.707106
vn 0.707107 0.000000 -0.707106
vn 0.555570 0.000000 -0.831470
vn 0.555570 0.000000 -0.831469
vn 0.382684 0.000000 -0.923879
vn 0.382684 0.000000 -0.923879
vn 0.195091 0.000000 -0.980785
vn 0.195091 0.000000 -0.980785
vn 0.000000 0.000000 -1.000000
vn 0.000000 0.000000 -1.000000
vn -0.195090 0.000000 -0.980785
vn -0.195090 0.000000 -0.980785
vn -0.382683 0.000000 -0.923880
vn -0.382683 0.000000 -0.923880
vn -0.555570 0.000000 -0.831470
vn -0.555570 0.000000 -0.831470
vn -0.707107 0.000000 -0.707107
vn -0.707107 0.000000 -0.707107
vn -0.831469 0.000000 -0.555571
vn -0.831469 0.000000 -0.555571
vn -0.923880 0.000000 -0.382684
vn -0.923880 0.000000 -0.382684
vn -0.980785 0.000000 -0.195091
vn -0.980785 0.000000 -0.195091
vn -1.000000 0.000000 0.000003
vn -1.000000 0.000000 0.000003
s 1
g pCylinder1
usemtl lambert3SG
f 1/1/1 33/34/2 34/35/3 2/2/4
f 2/2/4 34/35/3 35/36/5 3/3/6
f 3/3/6 35/36/5 36/37/7 4/4/8
f 4/4/8 36/37/7 37/38/9 5/5/10
f 5/5/10 37/38/9 38/39/11 6/6/12
f 6/6/12 38/39/11 39/40/13 7/7/14
f 7/7/14 39/40/13 40/41/15 8/8/16
usemtl lambert2SG
f 8/8/16 40/41/15 41/42/17 9/9/18
f 9/9/18 41/42/17 42/43/19 10/10/20
f 10/10/20 42/43/19 43/44/21 11/11/22
f 11/11/22 43/44/21 44/45/23 12/12/24
f 12/12/24 44/45/23 45/46/25 13/13/26
f 13/13/26 45/46/25 46/47/27 14/14/28
f 14/14/28 46/47/27 47/48/29 15/15/30
f 15/15/30 47/48/29 48/49/31 16/16/32
usemtl lambert5SG
f 16/16/32 48/49/31 49/50/33 17/17/34
f 17/17/34 49/50/33 50/51/35 18/18/36
f 18/18/36 50/51/35 51/52/37 19/19/38
f 19/19/38 51/52/37 52/53/39 20/20/40
f 20/20/40 52/53/39 53/54/41 21/21/42
f 21/21/42 53/54/41 54/55/43 22/22/44
f 22/22/44 54/55/43 55/56/45 23/23/46
f 23/23/46 55/56/45 56/57/47 24/24/48
usemtl lambert4SG
f 24/24/48 56/57/47 57/58/49 25/25/50
f 25/25/50 57/58/49 58/59/51 26/26/52
f 26/26/52 58/59/51 59/60/53 27/27/54
f 27/27/54 59/60/53 60/61/55 28/28/56
f 28/28/56 60/61/55 61/62/57 29/29/58
f 29/29/58 61/62/57 62/63/59 30/30/60
f 30/30/60 62/63/59 63/64/61 31/31/62
f 31/31/62 63/64/61 64/65/63 32/32/64
usemtl lambert3SG
f 32/32/64 64/65/63 33/66/2 1/33/1
